<mxfile host="app.diagrams.net" modified="2023-07-15T14:25:47.108Z" agent="Mozilla/5.0 (Windows NT 10.0; Win64; x64) AppleWebKit/537.36 (KHTML, like Gecko) Chrome/114.0.0.0 Safari/537.36" etag="J_7L-GWLPtP0fPPcvXH1" version="21.2.6" type="github">
  <diagram name="Page-1" id="822b0af5-4adb-64df-f703-e8dfc1f81529">
    <mxGraphModel dx="880" dy="462" grid="1" gridSize="10" guides="1" tooltips="1" connect="1" arrows="1" fold="1" page="1" pageScale="1" pageWidth="1100" pageHeight="850" background="none" math="0" shadow="0">
      <root>
        <mxCell id="0" />
        <mxCell id="1" parent="0" />
        <mxCell id="z8G9ZSLD1O1spooiH7aa-19" value="" style="edgeStyle=orthogonalEdgeStyle;rounded=0;orthogonalLoop=1;jettySize=auto;html=1;shape=link;" edge="1" parent="1" source="z8G9ZSLD1O1spooiH7aa-1" target="z8G9ZSLD1O1spooiH7aa-3">
          <mxGeometry relative="1" as="geometry" />
        </mxCell>
        <mxCell id="z8G9ZSLD1O1spooiH7aa-1" value="Internet" style="image;aspect=fixed;perimeter=ellipsePerimeter;html=1;align=center;shadow=0;dashed=0;spacingTop=3;image=img/lib/active_directory/internet_cloud.svg;" vertex="1" parent="1">
          <mxGeometry x="590" y="40" width="111.12" height="70" as="geometry" />
        </mxCell>
        <mxCell id="z8G9ZSLD1O1spooiH7aa-2" value="" style="shape=image;verticalLabelPosition=bottom;labelBackgroundColor=default;verticalAlign=top;aspect=fixed;imageAspect=0;image=data:image/png,iVBORw0KGgoAAAANSUhEUgAAAdYAAAHMCAYAAABoV4mnAAAgAElEQVR4nO3dT2gj22Ln8V/ldpi8R7/H3AyZSK33lAleNeMXDBIX1MzG0GiRjS3R4I2hNFl4510JvNTSULXzrhcZFWMGGi6l9iYLc8Gb0II7JWgSQy8ehozeVZdeYLgDaZIM72U0iyr9s1X+e2xJ9vcDzbVPlUunpFP1q3Oqro71uvxmoBT/58f/nbYIAIBH599//R/uvI1nly0M/+fJnV8AAIBl8br85s7b+AMD9QAAAAmCFQAAgwhWAAAMIlgBADCIYAUAwCCCFQAAgwhWAAAMIlgBADCIYAUAwCCCFQAAgwhWAAAMIlgBADCIYAUAwCCCFQAAgwhWAAAMIlgBADCIYF0SbhgpsOddCwBPUXnH0dbavGuxPAhWAAAMejbvCuBybjiQU0h+aQ40aEodz1KxPtdqAXgCyjsNvXqR/LLZUGNT+vyhobfHc63WwiNYF1y9aKmueCh45SCrqj9csqYtZ1Mvn0v68knvvXf6eGl5WTuNV3ohSZ8/qDE6MlLKyztqJEfU1IGUUr625WgzflF9eu/p3cfLyqm7qbo/xn2i7ovTlo7fNnSseCj46+/H+4PLWa/LbwZpC787/vYh64JLXAxWAHgYTylYX5ff3Hkb9FiXRL2YnXcVADxRx2+9eVdhqfDwEgAABhGsAAAYRLACAGAQwQoAgEEEKwAABhGsAAAYRLACAGAQwQoAgEEEKwAABhGsAAAYRLAuAeZivR9uONBgMP0vdCU7iDQI3WQtW0EUKfib8MK68fq2guhceRTIlqtwat3hZ+gqHEx8nm6YvNb59QcahH9zcduj7V/BDhRNvI4dRDfaxuw2N7GvM//eVTgI5V4ov55LP4+ZdY/rE3FwGGEHkcLbfniYQrDiyaoXLVmWJa8TT8VnWRPT8RWc6ZPMu6Isy5JleeqoI8+aXH/8u2VZsrJVxXMlTJTX2irtDwMho8r+jGDqt1Sb3E7xL1XNxj/XWn31W7Vz209jK9gvqV2bnrRh9PeWJa9X0e6NT6J+Uh9PnZnL6ypaRd12RsPLPo/ZdfdVzdbULu1z4YmFQrACM3RaLeW2r9EzvI1+S61bBds1ubuq9A6vnAkpt2LLDQfjCwg3nOr9lfbP97bTpPdkp3qbBrtDuZXhq/g6akulDZIVi4NgBWY5q2qvXbpm+BXknBu+vFDeLKm9N+5pHhU96XxwZypqXhg6vjl7Jad+9/RCeabSHNXRybW0d2nyZqR20kv0eqpc+kak9GTtQPul9qgX7sm59VDjZXX3z3rK5Fdvt2HgHhCsQAq/eiht7yp/5ZrTQ8Gj4eSkPB7G3TvXg6zroF3S7vpE0dRQsPm5dyeHU68eTu6rfZSsUT9RJ7dy8977al5qH41ep16cfG9u5mZ1B+aLYAVS1XXQzqmQudtW/OrezPuAfvVQKhTutvFZr3fLHpy7PlmXzHh41V1XoXd28zA77UqlDY2f0xrcy8MxaT10YF4IVjxZw6dQnYJUcM4P48b86mHKgzqTpoeCLz4x66u611apeX54t66DVn/869RQ8B3uSdYP1MptX2souX7QUi7Z9/WpPe2rl9+P6+FIXrGu8b1UR4VhXaNAdlq5Hw+nD/fJkXdpj/U6n8dFtjZKGveugQVgvS6/GaQt/O7424esC1K4YaSVA/NDg3jE7EBR8+KTwY+LrSBqqtSuKft4d/LB2EGk3bPsrYfrH4vX5Td33gbBCgBAwkSwMhQMAIBBBCsAAAYRrAAAGESwAgBgEMEKAIBBBCsAAAYRrAAAGESwAgBgEMEKAIBBBOsScMPbTyEGAHdR3nG0tTbvWiwXghUAAIOezbsCSOeG8UwfkqTmQIOm1PFuP6clAFxXeaehVy+SXzYbamxKnz809PZ4rtVaCgTrAqsXLdU1a3abNW05m3r5XNKXT3rvvdPHS8vL2mm80gtJ+vxBjdGRkVJe3lEjOaKmDqSU8rUtR5vxi+rTe0/vPl5WTt2f1D5R96VtS8dvGzpWPBT89ffj/cHVmN1mCTBtHIB5eWrBamJ2G3qsS6BezM67CgCeqOO33ryrsHR4eAkAAIMIVgAADCJYAQAwiGAFAMAgghUAAIMIVgAADCJYAQAwiGAFAMAgghUAAIMIVgAADCJYASNchVEgps0FQLACAGAQwQoAgEEEKwAABhGsAAAYRLACAGAQwQoAgEEEKwAABj2bdwWAx6GuYnbedQCwCOixAgBgEMEKAIBBBCsAAAYRrAAAGESwAgBgEMEKAIBBBCsAAAYRrAAAGESwYg6YFHyprW3J2SnPuxbAwiJYAQAwiK80xANyFQ4cFZLfmoOBmurIs4qqz7VeuJa1LTmbL/U8+bXReCV9+aT33jt9nGvFgMVCsOIB1VW06oqHgld0kK3KHy1b05azqZfPde5kXdZO45VeSNLnD2q8PU7WTykv76jx6oXi4obGq88uX9tytBm/qD699/Tu42XlaXU0VPdF36eP7+R9VByw3/wob1QRAJOs1+U3g7SF3x1/+5B1wZMxK1ixNAhWPGKvy2/uvA16rJgDZoJZasOeK4CZeHgJAACDCFYAAAwiWAEAMIhgBQDAIIIVAACDCFYAAAwiWAEAMIhgBQDAIIIVAACDCFYAAAwiWDEHCzIfqxtqMBhM/Qvd8WI7iBQFD1VLW0GU1GPyvbEDRUndHq4uV7ADRZNvFIApBCueto4ny7JG/4oT89f51ayy1YeaJsBXNWvJsjx1poqrylqWLK+T9ocAFgzBCpw30ZMdd8zGPcooDJNeZKh4satw1OuNy0a9XTtQFAWyZSuIIgX29PYH9PyAR4dgxdNWcC6GXL0oy7JUa/UnVox7lLVWX5lcV3uWJcsqqi5bQbStbi3p9XrSdmDLP2pL+VVpVZLyWtWq8r1DVX1XoSN5liXLqqmV29aijPACMINp4/C0dTxZk+O/19BvH03MI7uqfCajQnOgQXO4wobs6pl6+ysK1vM6PJTWw3XlugeSfBVr8X1TJ15ZLUO7AmAx0GMF7uRU3X5frdr4Pq2VrcrXqbqqqKIT1U+7yhUK6p358dDwvpIeb01TnWIAjwLBCpyX3ANtVjIqOMN7rfE91mYlo0ylOXH/1Vc1e6h8c3BuSNnXUbuvfvdU8s/UU0cndUn+kdqqqDkYaDDYV0kZVXZdje/hOipkkuVRIHv4VLBTGL3uwjwdDGAm63X5zSBt4XfH3z5kXfBkuAqjFR1kq3qoZ25hkB0o2j1T9oZD6MAyeF1+c+dtcI8Vc1BXMTvvOuDW/KqyXBEBqRgKBgDAIIIVAACDCFYAAAwiWAEAMIhgBQDAIIIVAACDCFYAAAwiWAEAMIhgBQDAIIIVc+AqjALxjbdLam1Lzk553rUAFhbBCgCAQXxXMB6Qq3DgqJD81hwM1FRHnlUUX+e+BNa25Gy+1PPk10bjlfTlk9577/RxrhUDFgvBigdUV9Gqa/bsNmvacjb18rnOnazL2mm80gtJ+vxBjbfHyfop5eUdNV69UFzc0Hj12eVrW4424xfVp/ee3n28rDytjobqvuj79PGdvI+KA/abH+WNKgJgEtPGYQ6YNm6pEax4xJg2DkuKaeOW2rDnCmAmHl4CAMAgghUAAIMIVgAADCJYAQAwiGAFAMAgghUAAIMIVgAADCJYAQAwiGAFAMAgghUAAIMIVsAI5pgFECNYAQAwiGAFAMAgghUAAIMIVgAADCJYAQAwiGAFAMAgghUAAIOezbsCwONQVzE77zoAWAT0WAEAMIhgBQDAIIIVAACDCFYAAAwiWAEAMIhgBQDAIIIVAACDCFYAAAwiWAEAMIhgNcEOFIXuvGsBYM7KO4621uZdC8wbwQoAgEF8V/Bd2IGiZkWZ5NfBwJH6LdWyVflzrRiAh1TeaejVi+SXzYYam9LnDw29PZ5rtTAn1uvym0Hawu+Ov33IuiwvO1C0e6ZssT4uK++okRxpUwdYSvnalqPNl88lfdGn957efbysfE1bzqbi4k96771TvHpaeVk7jVd6Eb+oGuPKzC6n7vOp+2PcpydU93iRo6+/H9cby+d1+c2dt0GwmjArWAE8OQTr8jMRrAwFm+BXlWXsF3jyjt96864CFgAPLwEAYBDBCgCAQQQrAAAGEawAABhEsAIAYBDBCgCAQQQrAAAGEawAABhEsAIAYBDBagLTxi0lO4g0GAzif1EgOyl3w4nf7UDRIFJguwqH647+hbrOp+6GAw1G7ePidu7UdNxwYtu33cQd65C+4Qvv65WvY2B/0jcdKbBnLlF4188BD8IOoqX4nAhWPGkdz5JlWbIO82pOhIAyea1KsjdKyexFdRWtZF3LUq3VV791oCu/HdoN5ciTNfU90h15w23VWsptT7zuTdWL57a9YDIV7c9OswVSV9HyJOd6F0rAVQhWQJLqRXm9kjZsSeqr05FWbGk131Onc25dN1Sz1NZe9aoviLYVbOfUOrgi+JIQj3vH53rQbjjqHYdhvCwK7Kl1o4ngcsNhTzhSFE33qsfLkt5Zsg2nIBWcZNnMnvVwG+OyMAwv9PRn6bda6lV2LwTW5GhBXH9bQTTQIK7MxOu6CpPXH/V4R73aWXVMtjMYKArD5D06H5jJ3011feo66RS0TrLCAIIVGMkovxr/1O1KpQ1XK+qqO7mKHShyJO9ac+6uKp/p6ezCigU5w0BoVtTziqrLVdjM63DYI26XtOsq7pFanjoqSCfxsmzVjyd+sCxZ3vnU76tVs+R1MuodWqq1clp34yDb7taSHrcnbQeyk214nYmee7GuOJy21a0lZZ60Hdga9tq9jlTQSbzsyvfhSMXR3yfcUM38YVKXmtqlXbnyVc0m+9PxkmVF1VXXSSenFdvWivrSii17RWodnCqIHMkb19EJXSnZTq3VVybX1d5oO6MXVzhI9u1cT/+021duZdF711gGBCsw0lf3NPnx6ES90rZKOtPZaLmtYL+kdq149RDwpSaGgi1LcZatKDcRuM1KRoWp7lNHJzd60Yl9kbSazyhTaSa9O0eFzLB3Psuq8pmMKs0k/J2CMqWNqZ5p5yaVqR+oXdrVevKrvZKb6JU2Vclc3lM87Ur5jQ3lu4fq5ne1W5LO/FXlMxPvSf1EndzKVB377aNzoZ9RpemocP2aA7dCsAJSfC8019bR6Ex8qq4y6k0EiBs2VWrv6coR4JFTdfs5XasT5J+pdy5wTd47Pe321W/Vxtu2spfsx6m6/bjnO1r/Wj30NL6qh1IhSTT/rDfRK524uEj767OeCpWSukd1namggro61am6/YlAdtdV6J1dUcdkn2ptlfYvDmGv5jPqXRxeAG6MYMWTNrq3uN1VbSo8fJ31Jnp9/yXQdkETvb7rPBXsq3rYU2X3Ojfu6irWutqeeFo4CuzkHqujwrA3O/W0ctKbTOoUXfKQkF/N6jA/u+71g5ZyU/dYfVWzh8o3x3WZvKc5vieb9pTtrN07UKs//LmoWnd7oi4T26kfqJVzputYP1FH8ZD6abef9ER9VbOeNKy3I3mjYey4xz98Xy48RepXtdcuTT+sJlfrhZuOCgCzWa/LbwZpC787/vYh67K87EDR7pmyi/x0JubGDQczngzG4nAVDuL7tXxEi80OIu2eZe/1c3pdfnPnbRCsAAAkTAQrQ8EAABhEsAIAYBDBCgCAQQQrAAAGEawAABhEsAIAYBDBCgCAQQQrAAAGEawAABhEsJpgB4qWYVp7APeqvONoa23etcC8EawAABj0bN4VWGp2oKhZUSb5dTBwpH7r3CwpAB678k5Dr14kv2w21NiUPn9o6O3xXKuFOeFL+E2YNbtNeUeN5EibOsBSyte2HG2+fC7piz699/Tu42Xla9pyNhUXf9J7753i1dPKy9ppvNKL+EXVGFdmdjl1n0/dH+M+PaG6x4scff39uN5YPsxusyiYNg6ACNbHwESwMhRsgl9VlrFf4Mk7fuvNuwpYADy8BACAQQQrAAAGEawAABhEsAIAYBDBCgCAQQQrAAAGEawAABhEsAIAYBDBCgCAQQQrAAAGEay34IYDRYE972oAsoNITAWM5eMqHER6rKdRgvWm7EDbuZb2qnw5MADcTl1Fr6fK7uO8KiRYb8jeKKl3yHyrAHAn9QO1cut6jNFKsN6Iq91KTyfMDgcAd+TrqJ3T9iMcDyZYb8JdV651IHIVAO7Orx6qV9l9dL1WgvXabAXbObWPGAQGADPqOmjltP7IkpVgvS57Q6XeoXhmCQDM8Y/aym0HekwDwgTrtdgK9ivqcXMVAMzyqzrsVfSYHhC2XpffDNIWfnf87UPWBQCAuXpdfnPnbdBjBQDAIIIVAACDCFYAAAwiWAEAMIhgBQDAIIIVAACDCFYAAAwiWAEAMIhgBQDAoPsLVjtQFD6i76gyaG3L0U553rV4enjf05S142xpbd7VwO2sbcmhYc9U3nG0NYeGTY8VAACDzH9XsB0oalaUmSzrt1TLVvXUJ4ZZ23K0+fL5VNmXT+/lvfs4pxo9DbzvacraabzSi6myz/rQeKvjOdUIN7C2JWfzpaZa9pdPeu+905Nv2TsNvZpu2Pr8oaG312jYJr4r+P6+hN8OFO2eKVucnBFm4kD+/EGN4V6Wd9RI3oWpnU8pH58ov+jTe0/D8+Ps8jVtOZuKiycbXVp5Sh1vWp62T0k9v/nRu9aHDHNmve9L3ZaMHB/J6zpf63tOyMtpbUvONz/KmzqhPMJz7Q3rHi9y9PX3k239aksYrJAI1nnhfU9DsC61mcEK6TEGKwAAS4Zp4wAAWDAEKwAABhGsAAAYRLACAGAQwQoAgEEEKwAABhGsAAAYRLACAGAQwQoAgEEEKwAABs15PlZX4SCUK8kOIoVu8ndRIDv1T0JFQerSmesPBoPkX6Sb/Ol9Ge0rHtTN3ndX4WBws7Z2g3qM22Tc/ufLVXjZMYfFds25r+N2N2xvcfu+zvFgB9H0cTBxTr3W8bSA52A3vN96zLnHWtdJJ6cVW1rNZ5SLf5DaR4ammHMVOpJnWbIsS1atrVJzEU5kWHj2itTpSKUNs4FjB9ovtVUbtklPcgg1PJj4fCt3XYVr/oVfzSpbnTgj14uyLEu1Vv8af/00z8FzHwo+7Ur5VVsr3Y56+VXZKzn1zuIPcfLKfuqKqbQ/u3ymgraH6/hVZa2i4vl24iu26V7DuCwMk6usKJDthvF/h5uc/N0OFA23MywbXaGFCsPr1hOLxN4oSScHaqukjeSjc8NIUXTxyjutPFWmot3hmaVelDWcq/gGbckNp9vU5O9uOLjQoxgdS1GoMLpBbwOPSqfTU351eN04DsZZbebGPdNUKefgWe095Rz8N5e091k5Me/2Pvdg9c96yq1sSDpRVyvayEvdU0luqGb+ML7KsWpql3ZHVzkZDa/4PfUqu5dc/dRVtGpql5rn3nhbQbStbm3ca4g/+LqKliWvIxV0Ei/LVuXXi/J645Ohu55Ta68qX67CZl6HydVYrV2K16kXZVmeOipIJ/GyqSs+LDhbG6WeTuq+jtpSaZisykjtWtJmeqrsuleUz+BXlbU8yTl/IrtZW6oXJ9u+q/VcS3tVX3YQabub1CVu2LIV9zqsWkv9TE7dvXg7zOj4BHW7yq27Ws1L3W5S5oZy5CU9ypZySZu5Wc80Tdo5OKW9p5yD/zKlvaflxLzb+9yDVaddqVSSzuo66pZUKfR05kv2Sk4qOMmH0VQlU9B6cr7qj4aKx0PJ6XxVs9boRBN/OKvKZzKqNJOTm1NQ5tyQX+dk+lOoH7SUW3clO9B2rq0jX5K9opwKcpIG06xkVFifPKl2dMLJa/nYGypl4s+1Wckok19NFvTVPkoukOon6uRWkjaTVp4mPnlMnchu3JbqOmjlFDfJbeWSY2I1n1GmMjyJOSpkxj3uuKpJ28XTdHaktra1nevqbFhWL6rW3Y7bTLOijPEXnXEOvrK9nz8Hz27vl+WEpLm19/kHq3+mXkbSadx7Vb+rUyU/d5KrKGv6imMcgq7WkyCe6fwQrr2iXL+rU52q2++rVRtvezQcl1rPI7Vz2wp3S+odJuv6Z+qpM75/YFmy6AYsPXujpJ5nja6CW7n15Eo5M+69uusq9M6SNpNWPmPbQaTB5JjUal6Z3pn8W7Ql/6it3Hao3VJPh8mIyGm3r36rNnHcZMVgCcZ8nSkjtY90mpTYQaR97Y0u9O7SP70g7RxsqL1flhPzNP9g1am6/SQcT7vqD09Kk1dR5+5d9Xt57SdX5PKG90xnqBdVa5fUHG6jWVJ7rypfvqrZQ+Wb4+G4+GQXj+87BangnL9f5qt62FOh0JvoOdRVrHW1PRhMD3O4YdxbGF6R8XDKEnG1W0luR0iSfJ31hveI+urlk/v7juSNjuC08ov8alaenHG7G61/i7bkV3XYK6jQOxkdA341q8N8c+K4GT91P2hWlMlU4uOBG6xP1mm3P3qORYoDS8NRjv3S+BmA5B5rs5JJzofJbYu08llSz8Ep7f2yc/CM9p6WE/Nu79br8ptB2sLvjr+9/ZbtQNHumbKLcPmwYOwg0u5ZdiGurJ6Su77vbhhp5eBiDzCtfHm4CqMVHVw1aoPFxLn2xi47Zl+X39x5+8/uvIU0flVZjtKZ/GqWE9gc8L6nqauYnXcdcGuca2+sfs8N/v6CFXhk0g7G+z5IASyXBbjHCgDA40GwAgBgEMEKAIBBBCsAAAYRrAAAGESwAgBgEMEKAIBBc57o/Gla23K0U553LZ4e3vc0Ze04W1qbdzVwO2tbcmjYM5V3HG3NoWHTYwUAwCDz3xVsB4rOTz3Ub6nG95BqbcvR5svnU2VfPr2X9+7jnGr0NPC+pylrp/FKL6bKPutD462O51Qj3MDalpzNl5pq2V8+6b33Tk++Ze809Gq6Yevzh4beXqNhm/iu4Af+Ev6JA/nzBzWGe1neUSN5F6Z2PqV8fKL8ok/vPQ3Pj7PL17TlbCounmx0aeUpdbxpedo+JfX85kfvWh8yzJn1vi91WzJyfCSv63yt7zkhL6e1LTnf/Chv6oTyCM+1N6x7vMjR199PtvWrLWGwQiJY54X3PQ3ButRmBiukxxisAAAsGRPBysNLAAAYRLACAGAQwQoAgEEEKwAABhGsAAAYRLACAGAQwQoAgEEEKwAABhGsAAAYRLACAGDQEwlWV2EUyJ53NYBbsoNITG+M5fW0zsFPJFgBAHgYBCsAAAYRrAAAGESwAgBgEMEKAIBBBCsAAAYRrAAAGGS9Lr8ZpC387vjbh6wLAABz9br85s7boMcKAIBBBCsAAAYRrAAAGESwAgBgEMEKAIBBBCsAAAYRrAAAGESwAgBg0BMJ1qc1yS4eHyY6x3J7WufgJxKsAAA8DIIVAACDCFYAAAwiWAEAMIhgBQDAIIIVAACDCFYAAAxionMAABJMdA4AwIIhWAEAMIhgBQDAIIIVAACDCFYAAAwiWAEAMIhgBQDAIIIVAACDCFYAAAwiWAEAMIhgBQDAoEuDdTAYKHQfqioAACy/Z5cttCwr+WlNW86mXj6X9OWT3nvv9PHS8rJ2Gq/0QpI+f1Dj7XGynZTy8o4ar14oLm5ovPrs8rUtR5vxi+rTe0/vPl5Wfs91f4z7RN1pS3wey133x7hPD1T3v/1wqrtidhsAABLMbgMAwIIhWAEAMIhgBQDAIIIVAACDCFYAAAwiWAEAMIhgBQDAIIIVAACDCFYAAAwiWAEAMIhgBQDAIIIVOMcNBxoMpv+Frq0gmpjtyQ4URYFsN7ywbry+q/B8eehKOl8eKbCVlA9/luSGyfqSFL/2YGqqKVfhINR1J5+yg+jc9iIFdrLdyfpcsk/9frL/dqAo/iHZTlI2tZ/JPpzf9rX2DZgHV2EUGNkSwQqcUy9asixLXkfqePHPxXq8rOCcC7N6UZZlybI8ddSRZ02s32+plvxuWZas4UYm1rNqbZX2k8BRRpXRz5NWle911CmsXztIZyo4M6aBnKiLZcnKVuWn7FPmv3eUW7Gl1bwyuRXZWlVebR35toL9ktq15H2To2h4hdDxRtuutUvaD6b3zg2byh9OvjfA8iNYgWvrqNXKaTu4GH1G9Ftq9SraPR9+7rpy3QOddApav0Oydlot5bZnBfc1nXal/Krsla46vbxW7RXlemfy7Q2V1NaRH69WP2hJpY0rX8cNB9ru1kSm4rEhWIEbOKvuqV3avV7PMVNR88KQryQV5AzLmyW196pKMklHRU86F37uek7tI1/1k44Kd0nWs6r22qVzwT1Rl8FgRo92gn+mXm5FG5JOutLKRl7qnsY92N7ZaB/kn6k32rwz2naz1NZe1R+VOwWpd+ZfeBlg2RGswI34qh5K27v5q1edGgrOqjrKkHh4tdbqq9/amyiXpLoO2iXtrg9/d7VeyKjSHGjgFKTcyu17nJL8uPIa1356KPjy3uOpuiqppDPVj7oqVQpxMJ521Z+sl72i3Gjzniyrpla/r9bEBYQ6nqxaS7nzQ+vAI0CwAjdVP1A7V1Dmjpvxq3tql/Z1fmTZrx5KhUL8i7uuXKs2Cj6vV9LGnUai6zpo51S4VeV9nfUykk6TXmlf3VNJ/pHaGtfL3a1I7aNxiMpXdW/yXvKwuKqsJzk8uIRHhmAFzhk+FewUpIIza4jUV/Wwc/WGpoaCZz35mgROMzoXrnUdtPqS/rOC7cLUcOlpV6qMxnKnh3Gja9779auHGtd+ehujJ3dTnHb7SX1O1e33FFdtuB/J+yZP2eq5IV4/HoZunt9+vShPzpWvCywT63X5zSBt4XfH3z5kXQAAmBNXYbSiPft/3HlL9FgBAFBdxWzVyJYIVgAADCJYAQAwiGAFAMAgghUAAIMIVgAADCJYAQAwiGAFAMAgghUAAIMIVgAADCJYAQAw6NJgvXJ+RgAAMOXZZQsty0p+WtOWs6mXzyV9+aT33jt9vLS8rJ3GK72QpM8f1Hh7nGwnpby8o8arF4qLGxqvPrt8baf26c4AAA2ZSURBVMvRZvyi+vTe07uPl5Xfc90f4z5Rd9oSn8dy1/0x7tMD1f1vP5zqrpjdBgCAxOvymztvg3usAAAYRLACAGAQwQoAgEEEKwAABhGsAAAYRLACAGAQwQoAgEEEKwAABhGsAAAYRLACAGAQwQoAgEFPJFhdhVEge97VAG7JDiJmmsISe1rn4CcSrAAAPAyCFQAAgwhWAAAMIlgBADCIYAUAwCCCFQAAgwhWAAAMsl6X3wzSFn53/O1D1gUAgLl6XX5z523QYwUAwCCCFQAAgwhWAAAMIlgBADCIYAUAwCCCFQAAgwhWAAAMIlgBADCIYAUAwKD7C1Y7UBS697b5Zba25WinPO9aPD2872nK2nG2tDbvauB21rbk0LBnKu842ppDw6bHCgCAQea/K9gOFDUrykyW9VuqZavyb761R2Vty9Hmy+dTZV8+vZf37uOcavQ08L6nKWun8Uovpso+60PjrY7nVCPcwNqWnM2XmmrZXz7pvfdOT75l7zT0arph6/OHht5eo2Gb+K7g+/sSfjtQtHumbLE+UThxIH/+oMZwL8s7aiTvwtTOp5SPT5Rf9Om9p+H5cXb5mracTcXFk40urTyljjctT9unpJ7f/Ohd60OGObPe96VuS0aOj+R1na/1PSfk5bS2JeebH+VNnVAe4bn2hnWPFzn6+vvJtn61JQxWSATrvPC+pyFYl9rMYIX0GIMVAIAlw7RxAAAsGIIVAACDCFYAAAwiWAEAMIhgBQDAIIIVAACDCFYAAAwiWAEAMIhgBQDAIIIVAACD5j8fqxtqMBgk/0JdawZXN9TgmnO9umGkwL7Wqg/GDiIxVe3Du7f3faoNT7Y3W0G0eO3vIldhFGjhq4nZ7mnuazuIJtr1QNEtG/I8z3fzOv8vRI+136rJsixZta62rxuuwEJwFTqSZ1lJG26r1KQN43HoeEm7tmpql/aX4CJxMSxEsI74Ve21clpPzkpuOL5aiq94bAXRQAOnIBWcc73cZNmFXoNU2p9RbgeKhldjk1frU72PwfhKK219QAVtDxuWX1XWKqruhhoMmqpkMqo0z13xz2xLrsJhmwvDqWUXj4PYuDxSFI3DPG194G56OvOl9HPtuA2fPwfHkr+LAtnnRnPGvdq4PBptfzkvUhcrWBO5FVtyQznykl5AS7ntQLZ8VbOWLK8jdZJlVlF1SXawr1I76fl6PVV2hx9HRrpQbivYL6ldi6/GvF5Fu8MPdXui92FZOji1JbkKm3kdJmW1dkm7y/hp4x7UVbRqapea00Nm9aIsq6ZWv69W0s6yVV9xWxq3vVq7pP3ATrZjyetIBZ3E7S9blT/zONC546MtZeLa2EGk7W7S3i1P2uYiELdXcIYB11T+8PJzrRsP3YxHbvYn256tIGoqf5i060tfNaPeYXJ8tHLji9YlspDB2jvzpXpRte52/KE2K8PzRiq/mtVhPjm5OYWJJX21j5KPsX6iTm4lCehD5ZOexHh1X9VDyZm457vq+5K9opwKo/JmJaPCOsmKoeSCLwmzXmU3/SrbXlGu39awSfpHbSm/OrVK52RiDuOU48BeyY3X84/U7sc/ruYzylSGIe+okClpY/nOS1gQ46FgSyfr8QjI7HOtrZVcR6Om61eVnQjQgtNU5aqT+PhVNW7aF4+PZbBYwWoH2q/0dFKPr7z3tTe6Uu9f8aduOND6SdIIvM7EkoxKwzOLu65C70y+XIWDdZ0kDWZq9Xpx1JDiC35b8s/UU2eqJ2sxgTuk+NbB5K0Be0W5flenaev7Z+pNhJ29UZK6qWunHgf+WW98cWdvqJSctE67/fEzC5Yly8qqenn3ALiR2edaX2e9wug2nuxA0cRxEQe0JzmzhnZtbZQmU3e8nauOj0W1EME6usJu5nWYDO36R21pWL5fkjKV8fBr/UCt3PQ91vpJZzxssZ1Tv7CdjN/31cvvJ1dXklesS6rrpDPugW7n+ipsB7In730l6x9WfUl1FWtdbRt4Qg6PTL2oWruk5rBtNEtq7w2v1H1VD3vn7rHWVay1VUrKmqW29oZDxMnoSdyO4/tPqcdBvShPzug1h4k71ZtY4ntUWAzjoeCBnFxLB/X0c2296EnOrONgqK54lVDu1LGxr3xvsuvUkdbPHx/LxXpdfjNIW/jd8be337IdKNo9U5ae3QV2EGn3LCvemof1mN73YU92dN92sK6T5KL05lyF0YoOrrz3hYX0qM61toJoV2fZ27blaW4YaeXgZqM2r8tv7vy69xesAO5R/DDI8L5Vx7MexQUDnjqzwXobJoL1mYF6AHhwvqpZ+pd4bB5Hu16Ie6wAADwWBCsAAAYRrAAAGESwAgBgEMEKAIBBBCsAAAYRrAAAGDT/ic6npiAaXHsC82XGROfzcef3PXVC82XHROdL7Z4mOp+eBm45v8b1yU50PjUFkWXJk7OUHyAeOyY0x9MyNQ1cMjUiHYLrmXuwSlJmYpqtenE4b2Xcwzh/tTQqi0KF0XAy57jXO/7QJ3+fvOq6OCl6FIbJF+9zksRVZkxoLml2G0uZuPz8bDiTv8+aAH3USw4Vhsvbc8ByKozm842nRhx+baYbjnuy4wnKZ5xT7UDR5Ll18vdZ7T3tuHnY3b6zuQerX83K8qbnQI3zMFQzfzhxtRSHr1/NxtNnZXLq7sVXU8W6r+rexCTQ9oZKPU/Fuq0g2la3dm4auKSR1Fp9ZXJd7U1MmA7MljKhudLaWMrE5fWivN54piZ3PafWXjWeyrCZ16E1ngB9OIuNZXnqqCCdTE6YDtyvetGanrkpCTg7iLTdrY3mH9Z2kMxxPeOc6le1NzFZub1RUs8rqp7W3tOOm3m+EbewGN8VXC/KSlLNDiLtB7ZOlZMKjgYDZ7Rax5VG6TcxWbQkya/qcDfShi2t7lbUO7EkucpnMio0Bxo0h3+3IVv+6IPqt4+W7kPDvEx+j6mrcLArVydXtrGpicsl1Q9ainZdyV7Rdq6tPV/xPK6KpzIctfipBj8xiTTwQPxqdtSO3XCgXVc6yWeUKTQ1GDd4bdiSn6x4/pzqVw+1G23I1qp2Kz2dWLpGe7943CyTOfdYzw/hSqv5jHpnvvyzntTxJiZsvnr2jvpJT5XdUOvJvIHSqbr9vlq1iQnKl/DqBwsgdULzW7Qx/0jt3LbC3ZJ6h8m6/pl66ozv4VqWLKarwdy4Cqce0LO1kuureyqddvvqt2oT5+arpmWr66RX0W64rlzrII7OR97e5xysvqrZiclxBwM58uIArRdV625feArTDiINmhVlMpV4iGIylesHauUKyo2umHxVs4fKN88/dRwHerOSGU2yzk15XCp1QvO0NjZ74vJYPMlzodCb6IXWVax1tX3+KUw31GDgqJBc3S/j/SYso7qKtbZKo3bdVKm9p6of92IP882Jc3Mo94pzav2gpVwhp/ZomDGlvV963CwPJjqfg8c04fYy4X1Pw0TnS41zbSomOgcAYM5MBOvcnwoGAOAxIVgBADCIYAUAwCCCFQAAgwhWAAAMIlgBADCIYAUAwCCCFQAAgxZgovOnZ23L0U553rV4enjf05S142xpbd7VwO2sbcmhYc9U3nG0NYeGTY8VAACDzH+loR0oalaUmSzrt1Tje0i1tuVo8+XzqbIvn97Le/dxTjV6Gnjf05S103ilF1Nln/Wh8VbHc6oRbmBtS87mS0217C+f9N57pyffsncaejXdsPX5Q0Nvr9GwF/u7gmd+MfTEgfz5gxrDvSzvqJG8C1M7n1I+PlF+0af3nobnx9nla9pyNhUXTza6tPKUOt60PG2fknp+86N3rQ8Z5sx635e6LRk5PpLXdb7W95yQl9PalpxvfpQ3dUJ5hOfaG9Y9XuTo6+8n2/rVljBYIRGs88L7noZgXWozgxXSYwxWAACWDLPbAACwYAhWAAAMIlgBADCIYAUAwCCCFQAAgwhWAAAMIlgBADCIYAUAwCCCFQAAgwhWAAAMIlgBADCIYAUAwCCCFQAAgwhWAAAMIlgBADCIYAUAwKBnly386U9/ducX+P3vf3fnbfzVX/3XO28DALC8/vqv/9uV6zx79ocPUJOr0WMFAMAgghUAAIMIVgAADLr0HutV/vRP/6N+/vP4Pmy//1v90z99MVIpAABMePbsK/35n/8nSdLvfvd7/cM//K/7f83b/uEvfpHTX/zFryRJv/lNj1AFACyc3//+3/Qv//Kvo7z62c9+rr//+7+/19e81VDw+VC970oCAHBbP/zQ09/9XZxTv/xlTr/61a/u9fVuHKyEKgBg2TxkuN4oWP/oj/7dKFT/+Z//hVAFACyNH37o6Te/6UmKw/UXv8jdy+vcKFj/9V//7yjxf/rTn9x7dxoAAFN+8YucfvnLOEx/85uefvihdy+vc+Oh4IceqwYA4K4e8jbmrR5eIlwBAMvioZ8NuvX/bvPDDz397ne/G/1/rD/72XP+lxsAwEJ59uwr/eQnf6Rf//rXi/H/sX711R/o3/7t/6Uu/+1v/1G//e0/Gq8UAAAm/P73/6Zf//rsWut+9ZWZLyO8dCs/+elzIy8CAMCiM5V5lwbrH3/9J3r27E7feggAwMJ79uyZ/vjrPzGyrUuD9dmzP9SLF3+m5z/7ubEuMgAAi+Krr/5Az3/2c7148WfG5nP9/1XGIk+F653VAAAAAElFTkSuQmCC;" vertex="1" parent="1">
          <mxGeometry x="1070" y="600" width="470" height="460" as="geometry" />
        </mxCell>
        <mxCell id="z8G9ZSLD1O1spooiH7aa-20" value="" style="edgeStyle=orthogonalEdgeStyle;rounded=0;orthogonalLoop=1;jettySize=auto;html=1;shape=link;" edge="1" parent="1" source="z8G9ZSLD1O1spooiH7aa-3" target="z8G9ZSLD1O1spooiH7aa-5">
          <mxGeometry relative="1" as="geometry" />
        </mxCell>
        <mxCell id="z8G9ZSLD1O1spooiH7aa-3" value="Firewall" style="image;html=1;image=img/lib/clip_art/networking/Firewall_02_128x128.png" vertex="1" parent="1">
          <mxGeometry x="595" y="200" width="80" height="80" as="geometry" />
        </mxCell>
        <mxCell id="z8G9ZSLD1O1spooiH7aa-23" value="" style="edgeStyle=orthogonalEdgeStyle;rounded=0;orthogonalLoop=1;jettySize=auto;html=1;shape=link;" edge="1" parent="1" source="z8G9ZSLD1O1spooiH7aa-5">
          <mxGeometry relative="1" as="geometry">
            <mxPoint x="847.5" y="520" as="targetPoint" />
          </mxGeometry>
        </mxCell>
        <mxCell id="z8G9ZSLD1O1spooiH7aa-24" style="edgeStyle=orthogonalEdgeStyle;rounded=0;orthogonalLoop=1;jettySize=auto;html=1;entryX=0.5;entryY=0;entryDx=0;entryDy=0;shape=link;" edge="1" parent="1" source="z8G9ZSLD1O1spooiH7aa-5" target="z8G9ZSLD1O1spooiH7aa-11">
          <mxGeometry relative="1" as="geometry" />
        </mxCell>
        <mxCell id="z8G9ZSLD1O1spooiH7aa-25" style="edgeStyle=orthogonalEdgeStyle;rounded=0;orthogonalLoop=1;jettySize=auto;html=1;shape=link;" edge="1" parent="1" source="z8G9ZSLD1O1spooiH7aa-5" target="z8G9ZSLD1O1spooiH7aa-10">
          <mxGeometry relative="1" as="geometry" />
        </mxCell>
        <mxCell id="z8G9ZSLD1O1spooiH7aa-5" value="DMZ (Perimeter Network)" style="image;sketch=0;aspect=fixed;html=1;points=[];align=center;fontSize=12;image=img/lib/mscae/Azure_Firewall.svg;" vertex="1" parent="1">
          <mxGeometry x="590" y="340" width="90" height="90" as="geometry" />
        </mxCell>
        <mxCell id="z8G9ZSLD1O1spooiH7aa-26" style="edgeStyle=orthogonalEdgeStyle;rounded=0;orthogonalLoop=1;jettySize=auto;html=1;entryX=0.113;entryY=-0.067;entryDx=0;entryDy=0;entryPerimeter=0;shape=link;" edge="1" parent="1" source="z8G9ZSLD1O1spooiH7aa-10" target="z8G9ZSLD1O1spooiH7aa-13">
          <mxGeometry relative="1" as="geometry" />
        </mxCell>
        <mxCell id="z8G9ZSLD1O1spooiH7aa-10" value="web server" style="image;aspect=fixed;perimeter=ellipsePerimeter;html=1;align=center;shadow=0;dashed=0;spacingTop=3;image=img/lib/active_directory/web_server.svg;" vertex="1" parent="1">
          <mxGeometry x="310" y="500" width="64" height="80" as="geometry" />
        </mxCell>
        <mxCell id="z8G9ZSLD1O1spooiH7aa-27" style="edgeStyle=orthogonalEdgeStyle;rounded=0;orthogonalLoop=1;jettySize=auto;html=1;entryX=0.53;entryY=-0.067;entryDx=0;entryDy=0;entryPerimeter=0;shape=link;" edge="1" parent="1" source="z8G9ZSLD1O1spooiH7aa-11" target="z8G9ZSLD1O1spooiH7aa-13">
          <mxGeometry relative="1" as="geometry" />
        </mxCell>
        <mxCell id="z8G9ZSLD1O1spooiH7aa-11" value="app server" style="image;aspect=fixed;perimeter=ellipsePerimeter;html=1;align=center;shadow=0;dashed=0;fontColor=#4277BB;labelBackgroundColor=default;fontSize=12;spacingTop=3;image=img/lib/ibm/applications/app_server.svg;" vertex="1" parent="1">
          <mxGeometry x="590" y="500" width="80" height="80" as="geometry" />
        </mxCell>
        <mxCell id="z8G9ZSLD1O1spooiH7aa-28" style="edgeStyle=orthogonalEdgeStyle;rounded=0;orthogonalLoop=1;jettySize=auto;html=1;entryX=0.868;entryY=0.017;entryDx=0;entryDy=0;entryPerimeter=0;shape=link;" edge="1" parent="1" source="z8G9ZSLD1O1spooiH7aa-12" target="z8G9ZSLD1O1spooiH7aa-13">
          <mxGeometry relative="1" as="geometry" />
        </mxCell>
        <mxCell id="z8G9ZSLD1O1spooiH7aa-12" value="mail server" style="fontColor=#0066CC;verticalAlign=top;verticalLabelPosition=bottom;labelPosition=center;align=center;html=1;outlineConnect=0;fillColor=#CCCCCC;strokeColor=#6881B3;gradientColor=none;gradientDirection=north;strokeWidth=2;shape=mxgraph.networks.mail_server;" vertex="1" parent="1">
          <mxGeometry x="810" y="500" width="105" height="105" as="geometry" />
        </mxCell>
        <mxCell id="z8G9ZSLD1O1spooiH7aa-13" value="INTERNAL NETWORK" style="rounded=0;whiteSpace=wrap;html=1;" vertex="1" parent="1">
          <mxGeometry x="270" y="650" width="690" height="60" as="geometry" />
        </mxCell>
        <mxCell id="z8G9ZSLD1O1spooiH7aa-31" style="edgeStyle=orthogonalEdgeStyle;rounded=0;orthogonalLoop=1;jettySize=auto;html=1;entryX=0.104;entryY=1.05;entryDx=0;entryDy=0;entryPerimeter=0;shape=link;" edge="1" parent="1" source="z8G9ZSLD1O1spooiH7aa-14" target="z8G9ZSLD1O1spooiH7aa-13">
          <mxGeometry relative="1" as="geometry" />
        </mxCell>
        <mxCell id="z8G9ZSLD1O1spooiH7aa-14" value="Database Server" style="sketch=0;outlineConnect=0;fontColor=#232F3E;gradientColor=none;fillColor=#2E27AD;strokeColor=none;dashed=0;verticalLabelPosition=bottom;verticalAlign=top;align=center;html=1;fontSize=12;fontStyle=0;aspect=fixed;pointerEvents=1;shape=mxgraph.aws4.rds_sql_server_instance;" vertex="1" parent="1">
          <mxGeometry x="303" y="780" width="78" height="78" as="geometry" />
        </mxCell>
        <mxCell id="z8G9ZSLD1O1spooiH7aa-32" style="edgeStyle=orthogonalEdgeStyle;rounded=0;orthogonalLoop=1;jettySize=auto;html=1;entryX=0.526;entryY=1.05;entryDx=0;entryDy=0;entryPerimeter=0;shape=link;" edge="1" parent="1" source="z8G9ZSLD1O1spooiH7aa-15" target="z8G9ZSLD1O1spooiH7aa-13">
          <mxGeometry relative="1" as="geometry" />
        </mxCell>
        <mxCell id="z8G9ZSLD1O1spooiH7aa-15" value="Storage Server" style="shape=mxgraph.cisco.servers.storage_server;html=1;pointerEvents=1;dashed=0;fillColor=#036897;strokeColor=#ffffff;strokeWidth=2;verticalLabelPosition=bottom;verticalAlign=top;align=center;outlineConnect=0;" vertex="1" parent="1">
          <mxGeometry x="603" y="775" width="54" height="83" as="geometry" />
        </mxCell>
        <mxCell id="z8G9ZSLD1O1spooiH7aa-34" style="edgeStyle=orthogonalEdgeStyle;rounded=0;orthogonalLoop=1;jettySize=auto;html=1;entryX=0.884;entryY=1;entryDx=0;entryDy=0;entryPerimeter=0;shape=link;" edge="1" parent="1" source="z8G9ZSLD1O1spooiH7aa-16" target="z8G9ZSLD1O1spooiH7aa-13">
          <mxGeometry relative="1" as="geometry" />
        </mxCell>
        <mxCell id="z8G9ZSLD1O1spooiH7aa-16" value="Backup Server" style="shadow=0;dashed=0;html=1;labelPosition=center;verticalLabelPosition=bottom;verticalAlign=top;align=center;outlineConnect=0;shape=mxgraph.veeam.3d.veeam_backup_enterprise_manager_server;" vertex="1" parent="1">
          <mxGeometry x="817.5" y="776" width="90" height="86" as="geometry" />
        </mxCell>
        <mxCell id="z8G9ZSLD1O1spooiH7aa-35" value="IHSAN PRATAMA" style="text;html=1;align=center;verticalAlign=middle;resizable=0;points=[];autosize=1;strokeColor=none;fillColor=none;" vertex="1" parent="1">
          <mxGeometry x="320" y="208" width="120" height="30" as="geometry" />
        </mxCell>
      </root>
    </mxGraphModel>
  </diagram>
</mxfile>
